<svg width="186" height="45" viewBox="0 0 186 45" fill="none" xmlns="http://www.w3.org/2000/svg">
<circle cx="23.5" cy="22.5" r="22.5" fill="black"/>
<g filter="url(#filter0_d_41_3)">
<path d="M15.4054 31.656C15.1814 31.432 15.0134 31.152 14.9014 30.816C14.8174 30.48 14.7894 30.144 14.8174 29.808C14.8454 29.472 14.9154 29.192 15.0274 28.968C15.0274 28.744 15.0554 28.576 15.1114 28.464C15.1954 28.324 15.2234 28.198 15.1954 28.086C15.1674 27.974 15.1954 27.778 15.2794 27.498C15.3634 27.218 15.4474 26.952 15.5314 26.7C15.7274 26.252 15.9374 25.72 16.1614 25.104C16.3854 24.46 16.5954 23.83 16.7914 23.214C16.9874 22.598 17.1554 22.066 17.2954 21.618C17.4354 21.17 17.5194 20.89 17.5474 20.778C17.5474 20.442 17.7714 20.26 18.2194 20.232C18.5554 20.12 18.8074 20.12 18.9754 20.232C19.1434 20.316 19.3674 20.582 19.6474 21.03C19.8714 21.254 19.9554 21.59 19.8994 22.038C19.8434 22.486 19.6614 23.046 19.3534 23.718C19.2414 23.942 19.1014 24.264 18.9334 24.684C18.7934 25.104 18.6954 25.482 18.6394 25.818C18.5274 26.042 18.3874 26.364 18.2194 26.784C18.0794 27.176 17.9534 27.554 17.8414 27.918C17.7854 28.058 17.7294 28.268 17.6734 28.548C17.6174 28.8 17.5474 29.08 17.4634 29.388C17.3794 29.668 17.2674 29.92 17.1274 30.144C16.8754 31.292 16.6374 31.964 16.4134 32.16C16.2174 32.356 15.8814 32.188 15.4054 31.656ZM19.4794 14.604C19.3394 14.464 19.2134 14.268 19.1014 14.016C18.9894 13.736 18.9194 13.484 18.8914 13.26C18.8634 13.008 18.8914 12.882 18.9754 12.882C19.1994 12.854 19.4654 12.616 19.7734 12.168C20.0814 11.72 20.2074 11.328 20.1514 10.992C20.1514 10.88 20.1934 10.782 20.2774 10.698C20.3614 10.586 20.4594 10.516 20.5714 10.488C20.9074 10.264 21.2294 10.236 21.5374 10.404C21.8734 10.544 22.1814 10.838 22.4614 11.286C22.7134 11.818 22.7834 12.266 22.6714 12.63C22.5594 12.966 22.2514 13.442 21.7474 14.058C21.3274 14.618 20.9354 14.926 20.5714 14.982C20.2354 15.038 19.8714 14.912 19.4794 14.604ZM26.0953 32.706C25.7873 32.65 25.4653 32.496 25.1293 32.244C24.8213 31.964 24.5413 31.656 24.2893 31.32C24.0653 30.956 23.9113 30.634 23.8273 30.354C23.8273 30.298 23.7853 30.228 23.7013 30.144C23.6453 30.06 23.6173 30.018 23.6173 30.018C23.5053 29.934 23.4353 29.57 23.4073 28.926C23.4073 28.254 23.4493 27.512 23.5333 26.7C23.6173 25.888 23.7153 25.244 23.8273 24.768C23.9673 24.32 24.1773 23.718 24.4573 22.962C24.7373 22.178 24.9753 21.478 25.1713 20.862L26.3053 18.426L24.6253 17.964C24.4293 17.908 24.2613 17.796 24.1213 17.628C24.0093 17.46 23.9533 17.32 23.9533 17.208C23.9533 16.984 24.0793 16.718 24.3313 16.41C24.5833 16.074 24.7653 15.906 24.8773 15.906C25.0173 15.934 25.2693 15.948 25.6333 15.948C26.0253 15.948 26.4033 15.934 26.7673 15.906C27.1313 15.878 27.3553 15.85 27.4393 15.822C27.5513 15.766 27.6633 15.696 27.7753 15.612C27.8873 15.5 27.9713 15.346 28.0273 15.15C28.1673 14.842 28.2933 14.562 28.4053 14.31C28.5173 14.03 28.6713 13.722 28.8673 13.386C29.0633 13.022 29.2173 12.714 29.3293 12.462C29.4693 12.21 29.6793 11.86 29.9593 11.412C30.0993 11.216 30.2533 10.978 30.4213 10.698C30.5893 10.418 30.7993 10.18 31.0513 9.984C31.3033 9.76 31.5553 9.662 31.8073 9.69C32.0873 9.69 32.4373 9.872 32.8573 10.236C33.0813 10.516 33.2073 10.726 33.2353 10.866C33.2633 11.006 33.1513 11.272 32.8993 11.664C32.6753 12.14 32.4093 12.616 32.1013 13.092C31.8213 13.568 31.5553 14.044 31.3033 14.52C30.8553 15.136 30.7713 15.486 31.0513 15.57C31.3313 15.654 32.1153 15.598 33.4033 15.402C34.2153 15.262 34.8033 15.304 35.1673 15.528C35.5313 15.724 35.7413 16.06 35.7973 16.536C35.8813 17.208 35.8113 17.614 35.5873 17.754C35.3633 17.894 34.7193 17.964 33.6553 17.964C32.9833 18.076 32.4093 18.146 31.9333 18.174C31.4573 18.174 31.1073 18.174 30.8833 18.174C30.5193 18.202 30.2813 18.216 30.1693 18.216C30.0573 18.216 29.8893 18.244 29.6653 18.3C29.4413 18.356 29.2733 18.454 29.1613 18.594C29.0773 18.706 28.9793 18.874 28.8673 19.098C28.7553 19.21 28.5873 19.504 28.3633 19.98C28.1393 20.456 27.8593 20.974 27.5233 21.534C27.1313 22.71 26.7953 23.886 26.5153 25.062C26.2353 26.21 26.0113 27.33 25.8433 28.422C25.7313 29.122 25.7453 29.612 25.8853 29.892C26.0253 30.144 26.3893 30.298 26.9773 30.354C27.2853 30.382 27.7753 30.382 28.4473 30.354C29.1473 30.298 29.6933 30.214 30.0853 30.102C30.3933 29.962 30.7153 29.822 31.0513 29.682C31.3873 29.514 31.6953 29.346 31.9753 29.178C32.2273 29.038 32.4793 28.898 32.7313 28.758C32.9833 28.59 33.1093 28.506 33.1093 28.506C33.2493 28.282 33.4033 28.212 33.5713 28.296C33.7393 28.38 33.8793 28.59 33.9913 28.926C33.9913 29.262 33.9213 29.612 33.7813 29.976C33.6413 30.34 33.1233 30.774 32.2273 31.278C30.9673 32.062 29.8053 32.538 28.7413 32.706C27.7053 32.846 26.8233 32.846 26.0953 32.706Z" fill="white"/>
</g>
<g filter="url(#filter1_d_41_3)">
<path d="M52.537 30.12C52.157 29.96 51.797 29.75 51.457 29.49C51.117 29.21 50.897 28.98 50.797 28.8C50.797 28.62 50.827 28.5 50.887 28.44C50.947 28.36 51.117 28.33 51.397 28.35C51.697 28.35 52.177 28.39 52.837 28.47C53.077 28.47 53.377 28.45 53.737 28.41C54.097 28.37 54.427 28.31 54.727 28.23C55.047 28.15 55.227 28.05 55.267 27.93C55.367 27.93 55.387 27.9 55.327 27.84C55.267 27.76 55.197 27.68 55.117 27.6C55.037 27.6 54.947 27.57 54.847 27.51C54.747 27.43 54.657 27.39 54.577 27.39C54.577 27.29 54.477 27.18 54.277 27.06C54.097 26.92 53.907 26.81 53.707 26.73C53.267 26.37 52.887 26.05 52.567 25.77C52.247 25.47 52.127 25.27 52.207 25.17C52.207 25.09 52.207 25.05 52.207 25.05C52.207 25.03 52.207 25.02 52.207 25.02C52.067 25.02 51.907 24.82 51.727 24.42C51.567 24.02 51.487 23.66 51.487 23.34C51.487 23.1 51.557 22.8 51.697 22.44C51.837 22.06 52.027 21.67 52.267 21.27C52.507 20.87 52.757 20.54 53.017 20.28C53.377 19.94 53.827 19.58 54.367 19.2C54.907 18.8 55.437 18.45 55.957 18.15C56.497 17.83 56.947 17.62 57.307 17.52C57.667 17.38 57.997 17.31 58.297 17.31C58.617 17.31 58.897 17.38 59.137 17.52C59.337 17.62 59.517 17.77 59.677 17.97C59.857 18.15 60.007 18.34 60.127 18.54C60.267 18.72 60.357 18.88 60.397 19.02C60.397 19.26 60.377 19.53 60.337 19.83C60.297 20.11 60.237 20.36 60.157 20.58C60.097 20.8 59.997 20.91 59.857 20.91C59.857 20.91 59.827 20.92 59.767 20.94C59.727 20.94 59.707 20.99 59.707 21.09C59.707 21.29 59.557 21.52 59.257 21.78C58.877 22.04 58.547 22.2 58.267 22.26C57.987 22.3 57.817 22.19 57.757 21.93C57.697 21.85 57.657 21.78 57.637 21.72C57.617 21.66 57.567 21.63 57.487 21.63C57.487 21.63 57.457 21.6 57.397 21.54C57.337 21.48 57.307 21.38 57.307 21.24C57.307 21.16 57.337 21.09 57.397 21.03C57.457 20.95 57.487 20.91 57.487 20.91C57.587 20.91 57.717 20.8 57.877 20.58C58.037 20.34 58.177 20.09 58.297 19.83C58.437 19.55 58.507 19.36 58.507 19.26C58.507 19.14 58.487 19.07 58.447 19.05C58.427 19.03 58.337 19.02 58.177 19.02C57.897 19.14 57.557 19.3 57.157 19.5C56.757 19.7 56.377 19.9 56.017 20.1C55.677 20.28 55.427 20.45 55.267 20.61C55.187 20.75 55.137 20.84 55.117 20.88C55.097 20.9 55.047 20.91 54.967 20.91C54.967 20.83 54.897 20.87 54.757 21.03C54.637 21.17 54.477 21.37 54.277 21.63C54.097 21.89 53.917 22.15 53.737 22.41C53.577 22.65 53.457 22.83 53.377 22.95C53.337 22.99 53.287 23.11 53.227 23.31C53.187 23.49 53.167 23.66 53.167 23.82C53.087 24.06 53.097 24.23 53.197 24.33C53.297 24.41 53.517 24.59 53.857 24.87C54.557 25.39 55.107 25.82 55.507 26.16C55.907 26.5 56.207 26.78 56.407 27C56.607 27.22 56.727 27.42 56.767 27.6C57.127 28.2 57.237 28.66 57.097 28.98C56.957 29.3 56.617 29.58 56.077 29.82C55.877 29.92 55.547 30 55.087 30.06C54.627 30.12 54.157 30.15 53.677 30.15C53.197 30.17 52.817 30.16 52.537 30.12ZM64.0816 29.31C63.6416 29.31 63.3116 29.29 63.0916 29.25C62.8716 29.21 62.7016 29.15 62.5816 29.07C62.4616 28.99 62.3216 28.88 62.1616 28.74C62.0816 28.58 61.9816 28.41 61.8616 28.23C61.7416 28.05 61.6416 27.92 61.5616 27.84C61.4816 27.54 61.4416 27.15 61.4416 26.67C61.4616 26.19 61.5216 25.67 61.6216 25.11C61.7416 24.55 61.9016 24.03 62.1016 23.55C62.1816 23.39 62.2516 23.23 62.3116 23.07C62.3716 22.91 62.4016 22.83 62.4016 22.83C62.4016 22.73 62.5216 22.49 62.7616 22.11C63.0216 21.73 63.3016 21.33 63.6016 20.91C63.9216 20.49 64.1816 20.19 64.3816 20.01C64.5216 19.85 64.7316 19.68 65.0116 19.5C65.3116 19.32 65.5716 19.19 65.7916 19.11C66.0116 19.03 66.2316 18.96 66.4516 18.9C66.6916 18.84 66.9616 18.81 67.2616 18.81C67.5416 18.81 67.8016 18.87 68.0416 18.99C68.2816 19.11 68.5116 19.32 68.7316 19.62C69.0916 19.98 69.2916 20.34 69.3316 20.7C69.3916 21.04 69.3816 21.39 69.3016 21.75C69.2016 22.15 69.0716 22.46 68.9116 22.68C68.7516 22.88 68.5716 22.97 68.3716 22.95C68.1716 22.93 67.9416 22.78 67.6816 22.5C67.6016 22.34 67.5616 22.21 67.5616 22.11C67.5616 21.99 67.6016 21.82 67.6816 21.6C67.7616 21.32 67.7616 21.03 67.6816 20.73C67.6016 20.43 67.4716 20.28 67.2916 20.28C67.0316 20.28 66.7416 20.4 66.4216 20.64C66.1216 20.86 65.8116 21.14 65.4916 21.48C65.3516 21.64 65.1516 21.89 64.8916 22.23C64.6516 22.55 64.4116 22.91 64.1716 23.31C63.9316 23.69 63.7316 24.06 63.5716 24.42C63.3516 25.08 63.1716 25.61 63.0316 26.01C62.9116 26.41 62.8516 26.61 62.8516 26.61C62.8516 26.69 62.8716 26.77 62.9116 26.85C62.9716 26.91 63.0016 26.98 63.0016 27.06C63.0016 27.3 63.1416 27.49 63.4216 27.63C63.6416 27.77 63.9016 27.85 64.2016 27.87C64.5016 27.87 64.8716 27.77 65.3116 27.57C65.6316 27.41 65.9316 27.2 66.2116 26.94C66.5116 26.68 66.8216 26.45 67.1416 26.25C67.3616 26.11 67.5316 25.99 67.6516 25.89C67.7916 25.79 67.8616 25.78 67.8616 25.86C67.8616 25.94 67.8916 25.98 67.9516 25.98C68.0116 25.98 68.0816 25.94 68.1616 25.86C68.2816 25.7 68.4116 25.6 68.5516 25.56C68.6916 25.5 68.8116 25.48 68.9116 25.5C69.0316 25.5 69.0916 25.53 69.0916 25.59C69.0516 25.77 69.0916 25.92 69.2116 26.04C69.2116 26.12 69.1816 26.23 69.1216 26.37C69.0816 26.49 69.0216 26.59 68.9416 26.67C68.8416 26.81 68.6916 26.97 68.4916 27.15C68.3116 27.33 68.1416 27.49 67.9816 27.63C67.8216 27.75 67.7416 27.81 67.7416 27.81C67.6616 27.79 67.5816 27.81 67.5016 27.87C67.4416 27.93 67.3716 28 67.2916 28.08C67.1316 28.22 66.9816 28.33 66.8416 28.41C66.7016 28.47 66.5916 28.5 66.5116 28.5C66.3716 28.58 66.2616 28.63 66.1816 28.65C66.1216 28.67 66.0916 28.72 66.0916 28.8C65.8916 29 65.6416 29.14 65.3416 29.22C65.0616 29.28 64.6416 29.31 64.0816 29.31ZM81.8892 29.34C81.5092 29.44 81.2292 29.48 81.0492 29.46C80.8692 29.42 80.6292 29.25 80.3292 28.95C80.1492 28.67 79.9892 28.42 79.8492 28.2C79.7092 27.98 79.6192 27.59 79.5792 27.03C79.5592 26.65 79.5792 26.24 79.6392 25.8C79.7192 25.34 79.7492 25.01 79.7292 24.81C79.8892 24.07 79.9492 23.48 79.9092 23.04C79.8892 22.58 79.8292 22.35 79.7292 22.35C79.5092 22.31 79.1092 22.53 78.5292 23.01C77.9692 23.47 77.3192 24.08 76.5792 24.84C75.8592 25.58 75.1392 26.36 74.4192 27.18C74.0392 27.7 73.7692 28.09 73.6092 28.35C73.4492 28.59 73.3292 28.71 73.2492 28.71C73.1092 28.71 72.9192 28.66 72.6792 28.56C72.4392 28.46 72.2292 28.34 72.0492 28.2C71.8692 28.04 71.7692 27.9 71.7492 27.78C71.7492 27.7 71.7992 27.49 71.8992 27.15C71.9992 26.79 72.1192 26.38 72.2592 25.92C72.4192 25.46 72.5592 25.03 72.6792 24.63C72.7992 24.23 72.8892 23.95 72.9492 23.79C73.1292 23.27 73.3392 22.64 73.5792 21.9C73.8392 21.14 74.0692 20.47 74.2692 19.89C74.3492 19.63 74.4892 19.26 74.6892 18.78C74.8892 18.28 75.0892 17.78 75.2892 17.28C75.4892 16.78 75.6292 16.41 75.7092 16.17C75.7692 16.01 75.8792 15.73 76.0392 15.33C76.1992 14.91 76.3692 14.45 76.5492 13.95C76.7492 13.45 76.9292 12.99 77.0892 12.57C77.2692 12.13 77.3892 11.81 77.4492 11.61C77.4292 11.43 77.4392 11.27 77.4792 11.13C77.5392 10.97 77.5992 10.85 77.6592 10.77C77.7392 10.77 77.8292 10.77 77.9292 10.77C78.0292 10.75 78.0792 10.74 78.0792 10.74C78.0792 10.7 78.1592 10.74 78.3192 10.86C78.4792 10.98 78.6292 11.13 78.7692 11.31C78.9292 11.47 79.0092 11.61 79.0092 11.73C79.1092 11.99 79.1192 12.33 79.0392 12.75C78.9592 13.15 78.7492 13.76 78.4092 14.58C78.1892 14.9 77.9692 15.38 77.7492 16.02C77.5492 16.66 77.3492 17.2 77.1492 17.64C77.0692 17.78 76.9192 18.08 76.6992 18.54C76.4992 19 76.2592 19.54 75.9792 20.16C75.7192 20.78 75.4692 21.41 75.2292 22.05C74.9892 22.67 74.7992 23.23 74.6592 23.73C74.4592 24.21 74.3892 24.53 74.4492 24.69C74.5092 24.85 74.7492 24.67 75.1692 24.15C75.7292 23.55 76.3192 22.94 76.9392 22.32C77.5592 21.7 78.1392 21.18 78.6792 20.76C79.2392 20.32 79.6892 20.12 80.0292 20.16C80.2092 20.2 80.3992 20.32 80.5992 20.52C80.8192 20.72 81.0292 20.95 81.2292 21.21C81.4292 21.47 81.5692 21.72 81.6492 21.96C81.7292 22.26 81.7792 22.52 81.7992 22.74C81.8392 22.96 81.8492 23.29 81.8292 23.73C81.8092 24.15 81.7592 24.82 81.6792 25.74C81.5592 26.42 81.4792 26.91 81.4392 27.21C81.3992 27.49 81.4092 27.69 81.4692 27.81C81.5492 27.93 81.6692 28.06 81.8292 28.2C82.1292 28.44 82.2792 28.65 82.2792 28.83C82.2992 29.01 82.1692 29.18 81.8892 29.34ZM87.1423 29.55C86.8823 29.55 86.6723 29.5 86.5123 29.4C86.3723 29.3 86.1923 29.16 85.9723 28.98C85.5923 28.58 85.3223 28.2 85.1623 27.84C85.0023 27.46 84.9523 27.1 85.0123 26.76C85.0723 26.6 85.0923 26.45 85.0723 26.31C85.0723 26.15 85.0723 26.07 85.0723 26.07C84.9723 25.97 84.9423 25.91 84.9823 25.89C85.0223 25.85 85.0623 25.79 85.1023 25.71C85.2223 25.71 85.2623 25.6 85.2223 25.38C85.1823 25.22 85.2623 24.87 85.4623 24.33C85.6623 23.79 85.9123 23.28 86.2123 22.8C86.3323 22.6 86.5123 22.34 86.7523 22.02C86.9923 21.68 87.2523 21.35 87.5323 21.03C87.8323 20.69 88.1023 20.42 88.3423 20.22C88.8423 19.8 89.2823 19.49 89.6623 19.29C90.0423 19.09 90.4523 18.94 90.8923 18.84C91.3323 18.74 91.6323 18.69 91.7923 18.69C91.9723 18.69 92.2123 18.85 92.5123 19.17C92.9723 19.37 93.3023 19.61 93.5023 19.89C93.7223 20.17 93.8623 20.58 93.9223 21.12C93.9823 21.72 93.9323 22.41 93.7723 23.19C93.6323 23.95 93.1623 24.9 92.3623 26.04C91.8623 26.76 91.4023 27.3 90.9823 27.66C90.5623 28 90.0623 28.34 89.4823 28.68C89.0623 28.96 88.6823 29.17 88.3423 29.31C88.0023 29.43 87.6023 29.51 87.1423 29.55ZM90.0223 26.37C90.5023 25.83 90.8823 25.32 91.1623 24.84C91.4623 24.36 91.7423 23.75 92.0023 23.01C92.0823 22.79 92.1323 22.52 92.1523 22.2C92.1723 21.86 92.1623 21.55 92.1223 21.27C92.1023 20.97 92.0323 20.8 91.9123 20.76C91.6723 20.62 91.3823 20.58 91.0423 20.64C90.7023 20.68 90.3323 20.87 89.9323 21.21C89.3123 21.73 88.7723 22.38 88.3123 23.16C87.8523 23.92 87.4023 24.79 86.9623 25.77C86.6623 26.49 86.5923 27.07 86.7523 27.51C86.9323 27.93 87.3023 28.08 87.8623 27.96C88.4423 27.82 89.1623 27.29 90.0223 26.37ZM98.7984 28.86C98.3784 28.94 98.1084 28.97 97.9884 28.95C97.8884 28.91 97.7284 28.79 97.5084 28.59C97.1884 28.43 96.9184 28.23 96.6984 27.99C96.4984 27.75 96.3484 27.5 96.2484 27.24C96.1684 26.96 96.1384 26.73 96.1584 26.55C96.2184 25.85 96.3884 25.1 96.6684 24.3C96.9484 23.5 97.2884 22.73 97.6884 21.99C98.0884 21.25 98.5184 20.62 98.9784 20.1C99.4584 19.56 99.9184 19.21 100.358 19.05C100.758 18.89 101.138 18.83 101.498 18.87C101.858 18.91 102.118 19.1 102.278 19.44C102.578 20.02 102.508 20.39 102.068 20.55C102.008 20.55 101.938 20.58 101.858 20.64C101.778 20.68 101.738 20.74 101.738 20.82C101.818 20.86 102.038 20.87 102.398 20.85C102.758 20.81 103.118 20.75 103.478 20.67C103.858 20.57 104.108 20.47 104.228 20.37C104.348 20.31 104.438 20.28 104.498 20.28C104.558 20.28 104.708 20.3 104.948 20.34C105.288 20.44 105.458 20.56 105.458 20.7C105.458 20.78 105.488 20.86 105.548 20.94C105.608 21 105.678 21.03 105.758 21.03C105.898 21.05 105.878 21.14 105.698 21.3C105.538 21.46 105.258 21.68 104.858 21.96C104.478 22.2 104.238 22.36 104.138 22.44C104.058 22.5 104.048 22.64 104.108 22.86C104.268 23.24 104.278 23.68 104.138 24.18C103.998 24.68 103.748 25.19 103.388 25.71C103.028 26.23 102.588 26.72 102.068 27.18C101.568 27.62 101.028 28 100.448 28.32C99.8884 28.62 99.3384 28.8 98.7984 28.86ZM98.2884 27.54C98.3684 27.54 98.5084 27.5 98.7084 27.42C98.9084 27.32 99.0684 27.24 99.1884 27.18C99.2684 27.1 99.3684 27.01 99.4884 26.91C99.6284 26.79 99.7384 26.72 99.8184 26.7C99.8984 26.7 99.9984 26.67 100.118 26.61C100.238 26.53 100.408 26.38 100.628 26.16C100.848 25.92 101.138 25.57 101.498 25.11C101.898 24.67 102.208 24.27 102.428 23.91C102.648 23.53 102.708 23.18 102.608 22.86C102.588 22.78 102.528 22.73 102.428 22.71C102.348 22.69 102.238 22.64 102.098 22.56C101.898 22.56 101.708 22.51 101.528 22.41C101.368 22.29 101.178 22.14 100.958 21.96L100.478 21.36L99.9684 21.87C99.6484 22.19 99.3084 22.67 98.9484 23.31C98.6084 23.93 98.3184 24.57 98.0784 25.23C97.8384 25.87 97.6984 26.38 97.6584 26.76C97.6384 27.06 97.6884 27.26 97.8084 27.36C97.9284 27.46 98.0884 27.52 98.2884 27.54ZM107.125 30C106.745 30.1 106.435 30.02 106.195 29.76C105.975 29.5 105.845 29.1 105.805 28.56C105.765 28.02 105.825 27.38 105.985 26.64C106.085 26.4 106.165 26.17 106.225 25.95C106.285 25.71 106.315 25.52 106.315 25.38C106.355 25.18 106.435 24.89 106.555 24.51C106.675 24.11 106.805 23.7 106.945 23.28C107.085 22.86 107.215 22.49 107.335 22.17C107.475 21.83 107.565 21.62 107.605 21.54C107.685 21.54 107.755 21.47 107.815 21.33C107.875 21.19 107.905 21.05 107.905 20.91C107.905 20.75 107.935 20.57 107.995 20.37C108.075 20.17 108.155 20.03 108.235 19.95C108.235 19.85 108.255 19.74 108.295 19.62C108.355 19.48 108.385 19.37 108.385 19.29C108.385 19.21 108.405 19.13 108.445 19.05C108.505 18.97 108.535 18.89 108.535 18.81C108.675 18.55 108.855 18.14 109.075 17.58C109.315 17 109.565 16.36 109.825 15.66C110.105 14.96 110.365 14.27 110.605 13.59C110.845 12.91 111.035 12.34 111.175 11.88C111.335 11.4 111.415 11.11 111.415 11.01C111.415 10.85 111.455 10.73 111.535 10.65C111.615 10.57 111.735 10.53 111.895 10.53C111.955 10.47 112.025 10.43 112.105 10.41C112.205 10.39 112.295 10.38 112.375 10.38C112.375 10.38 112.415 10.42 112.495 10.5C112.575 10.58 112.695 10.7 112.855 10.86C113.015 11 113.105 11.16 113.125 11.34C113.165 11.52 113.185 11.73 113.185 11.97C113.185 12.23 113.155 12.46 113.095 12.66C113.035 12.86 112.915 13.15 112.735 13.53C112.555 13.91 112.275 14.5 111.895 15.3C111.735 15.7 111.565 16.08 111.385 16.44C111.205 16.78 111.115 16.99 111.115 17.07C111.115 17.15 111.075 17.27 110.995 17.43C110.935 17.59 110.865 17.79 110.785 18.03C110.705 18.19 110.595 18.43 110.455 18.75C110.315 19.05 110.165 19.38 110.005 19.74C109.865 20.08 109.745 20.38 109.645 20.64C109.545 20.88 109.495 21.02 109.495 21.06C109.495 21.14 109.485 21.22 109.465 21.3C109.465 21.38 109.425 21.46 109.345 21.54C109.265 21.54 109.215 21.6 109.195 21.72C109.195 21.82 109.195 21.87 109.195 21.87C109.195 22.07 109.035 22.6 108.715 23.46C108.395 24.56 108.095 25.57 107.815 26.49C107.555 27.41 107.425 28.15 107.425 28.71C107.425 29.19 107.415 29.51 107.395 29.67C107.375 29.81 107.285 29.92 107.125 30Z" fill="white"/>
</g>
<defs>
<filter id="filter0_d_41_3" x="10.7754" y="9.64801" width="29.148" height="31.268" filterUnits="userSpaceOnUse" color-interpolation-filters="sRGB">
<feFlood flood-opacity="0" result="BackgroundImageFix"/>
<feColorMatrix in="SourceAlpha" type="matrix" values="0 0 0 0 0 0 0 0 0 0 0 0 0 0 0 0 0 0 127 0" result="hardAlpha"/>
<feOffset dy="4"/>
<feGaussianBlur stdDeviation="2"/>
<feComposite in2="hardAlpha" operator="out"/>
<feColorMatrix type="matrix" values="0 0 0 0 0 0 0 0 0 0 0 0 0 0 0 0 0 0 0.25 0"/>
<feBlend mode="normal" in2="BackgroundImageFix" result="effect1_dropShadow_41_3"/>
<feBlend mode="normal" in="SourceGraphic" in2="effect1_dropShadow_41_3" result="shape"/>
</filter>
<filter id="filter1_d_41_3" x="46.797" y="10.38" width="70.3876" height="27.8" filterUnits="userSpaceOnUse" color-interpolation-filters="sRGB">
<feFlood flood-opacity="0" result="BackgroundImageFix"/>
<feColorMatrix in="SourceAlpha" type="matrix" values="0 0 0 0 0 0 0 0 0 0 0 0 0 0 0 0 0 0 127 0" result="hardAlpha"/>
<feOffset dy="4"/>
<feGaussianBlur stdDeviation="2"/>
<feComposite in2="hardAlpha" operator="out"/>
<feColorMatrix type="matrix" values="0 0 0 0 0 0 0 0 0 0 0 0 0 0 0 0 0 0 0.25 0"/>
<feBlend mode="normal" in2="BackgroundImageFix" result="effect1_dropShadow_41_3"/>
<feBlend mode="normal" in="SourceGraphic" in2="effect1_dropShadow_41_3" result="shape"/>
</filter>
</defs>
</svg>
