<svg width="59" height="49" viewBox="0 0 59 49" fill="none" xmlns="http://www.w3.org/2000/svg">
<circle cx="25" cy="23" r="19" fill="black"/>
<g filter="url(#filter0_d_109_16)">
<path d="M17.9752 30.912C17.7938 30.7307 17.6578 30.504 17.5672 30.232C17.4992 29.96 17.4765 29.688 17.4992 29.416C17.5218 29.144 17.5785 28.9173 17.6692 28.736C17.6692 28.5547 17.6918 28.4187 17.7372 28.328C17.8052 28.2147 17.8278 28.1127 17.8052 28.022C17.7825 27.9313 17.8052 27.7727 17.8732 27.546C17.9412 27.3193 18.0092 27.104 18.0772 26.9C18.2358 26.5373 18.4058 26.1067 18.5872 25.608C18.7685 25.0867 18.9385 24.5767 19.0972 24.078C19.2558 23.5793 19.3918 23.1487 19.5052 22.786C19.6185 22.4233 19.6865 22.1967 19.7092 22.106C19.7092 21.834 19.8905 21.6867 20.2532 21.664C20.5252 21.5733 20.7292 21.5733 20.8652 21.664C21.0012 21.732 21.1825 21.9473 21.4092 22.31C21.5905 22.4913 21.6585 22.7633 21.6132 23.126C21.5678 23.4887 21.4205 23.942 21.1712 24.486C21.0805 24.6673 20.9672 24.928 20.8312 25.268C20.7178 25.608 20.6385 25.914 20.5932 26.186C20.5025 26.3673 20.3892 26.628 20.2532 26.968C20.1398 27.2853 20.0378 27.5913 19.9472 27.886C19.9018 27.9993 19.8565 28.1693 19.8112 28.396C19.7658 28.6 19.7092 28.8267 19.6412 29.076C19.5732 29.3027 19.4825 29.5067 19.3692 29.688C19.1652 30.6173 18.9725 31.1613 18.7912 31.32C18.6325 31.4787 18.3605 31.3427 17.9752 30.912ZM21.2732 17.108C21.1598 16.9947 21.0578 16.836 20.9672 16.632C20.8765 16.4053 20.8198 16.2013 20.7972 16.02C20.7745 15.816 20.7972 15.714 20.8652 15.714C21.0465 15.6913 21.2618 15.4987 21.5112 15.136C21.7605 14.7733 21.8625 14.456 21.8172 14.184C21.8172 14.0933 21.8512 14.014 21.9192 13.946C21.9872 13.8553 22.0665 13.7987 22.1572 13.776C22.4292 13.5947 22.6898 13.572 22.9392 13.708C23.2112 13.8213 23.4605 14.0593 23.6872 14.422C23.8912 14.8527 23.9478 15.2153 23.8572 15.51C23.7665 15.782 23.5172 16.1673 23.1092 16.666C22.7692 17.1193 22.4518 17.3687 22.1572 17.414C21.8852 17.4593 21.5905 17.3573 21.2732 17.108ZM26.629 31.762C26.3796 31.7167 26.119 31.592 25.847 31.388C25.5976 31.1613 25.371 30.912 25.167 30.64C24.9856 30.3453 24.861 30.0847 24.793 29.858C24.793 29.8127 24.759 29.756 24.691 29.688C24.6456 29.62 24.623 29.586 24.623 29.586C24.5323 29.518 24.4756 29.2233 24.453 28.702C24.453 28.158 24.487 27.5573 24.555 26.9C24.623 26.2427 24.7023 25.7213 24.793 25.336C24.9063 24.9733 25.0763 24.486 25.303 23.874C25.5296 23.2393 25.7223 22.6727 25.881 22.174L26.799 20.202L25.439 19.828C25.2803 19.7827 25.1443 19.692 25.031 19.556C24.9403 19.42 24.895 19.3067 24.895 19.216C24.895 19.0347 24.997 18.8193 25.201 18.57C25.405 18.298 25.5523 18.162 25.643 18.162C25.7563 18.1847 25.9603 18.196 26.255 18.196C26.5723 18.196 26.8783 18.1847 27.173 18.162C27.4676 18.1393 27.649 18.1167 27.717 18.094C27.8076 18.0487 27.8983 17.992 27.989 17.924C28.0796 17.8333 28.1476 17.7087 28.193 17.55C28.3063 17.3007 28.4083 17.074 28.499 16.87C28.5896 16.6433 28.7143 16.394 28.873 16.122C29.0316 15.8273 29.1563 15.578 29.247 15.374C29.3603 15.17 29.5303 14.8867 29.757 14.524C29.8703 14.3653 29.995 14.1727 30.131 13.946C30.267 13.7193 30.437 13.5267 30.641 13.368C30.845 13.1867 31.049 13.1073 31.253 13.13C31.4796 13.13 31.763 13.2773 32.103 13.572C32.2843 13.7987 32.3863 13.9687 32.409 14.082C32.4316 14.1953 32.341 14.4107 32.137 14.728C31.9556 15.1133 31.7403 15.4987 31.491 15.884C31.2643 16.2693 31.049 16.6547 30.845 17.04C30.4823 17.5387 30.4143 17.822 30.641 17.89C30.8676 17.958 31.5023 17.9127 32.545 17.754C33.2023 17.6407 33.6783 17.6747 33.973 17.856C34.2676 18.0147 34.4376 18.2867 34.483 18.672C34.551 19.216 34.4943 19.5447 34.313 19.658C34.1316 19.7713 33.6103 19.828 32.749 19.828C32.205 19.9187 31.7403 19.9753 31.355 19.998C30.9696 19.998 30.6863 19.998 30.505 19.998C30.2103 20.0207 30.0176 20.032 29.927 20.032C29.8363 20.032 29.7003 20.0547 29.519 20.1C29.3376 20.1453 29.2016 20.2247 29.111 20.338C29.043 20.4287 28.9636 20.5647 28.873 20.746C28.7823 20.8367 28.6463 21.0747 28.465 21.46C28.2836 21.8453 28.057 22.2647 27.785 22.718C27.4676 23.67 27.1956 24.622 26.969 25.574C26.7423 26.5033 26.561 27.41 26.425 28.294C26.3343 28.8607 26.3456 29.2573 26.459 29.484C26.5723 29.688 26.867 29.8127 27.343 29.858C27.5923 29.8807 27.989 29.8807 28.533 29.858C29.0996 29.8127 29.5416 29.7447 29.859 29.654C30.1083 29.5407 30.369 29.4273 30.641 29.314C30.913 29.178 31.1623 29.042 31.389 28.906C31.593 28.7927 31.797 28.6793 32.001 28.566C32.205 28.43 32.307 28.362 32.307 28.362C32.4203 28.1807 32.545 28.124 32.681 28.192C32.817 28.26 32.9303 28.43 33.021 28.702C33.021 28.974 32.9643 29.2573 32.851 29.552C32.7376 29.8467 32.3183 30.198 31.593 30.606C30.573 31.2407 29.6323 31.626 28.771 31.762C27.9323 31.8753 27.2183 31.8753 26.629 31.762Z" fill="white"/>
</g>
<defs>
<filter id="filter0_d_109_16" x="13.4652" y="13.0959" width="25.1198" height="26.8361" filterUnits="userSpaceOnUse" color-interpolation-filters="sRGB">
<feFlood flood-opacity="0" result="BackgroundImageFix"/>
<feColorMatrix in="SourceAlpha" type="matrix" values="0 0 0 0 0 0 0 0 0 0 0 0 0 0 0 0 0 0 127 0" result="hardAlpha"/>
<feOffset dy="4"/>
<feGaussianBlur stdDeviation="2"/>
<feComposite in2="hardAlpha" operator="out"/>
<feColorMatrix type="matrix" values="0 0 0 0 0 0 0 0 0 0 0 0 0 0 0 0 0 0 0.25 0"/>
<feBlend mode="normal" in2="BackgroundImageFix" result="effect1_dropShadow_109_16"/>
<feBlend mode="normal" in="SourceGraphic" in2="effect1_dropShadow_109_16" result="shape"/>
</filter>
</defs>
</svg>
